<?xml version="1.0" encoding="utf-8"?>
<!-- Generator: Adobe Illustrator 24.0.2, SVG Export Plug-In . SVG Version: 6.00 Build 0)  -->
<svg version="1.1" id="Capa_1_copia_3" xmlns="http://www.w3.org/2000/svg" xmlns:xlink="http://www.w3.org/1999/xlink" x="0px"
	 y="0px" viewBox="0 0 377 267" style="enable-background:new 0 0 377 267;" xml:space="preserve">
<style type="text/css">
	.st0{fill:#FFFFFF;stroke:#FFFFFF;stroke-miterlimit:10;}
	.st1{fill:#468CCB;}
</style>
<g>
	<path class="st0" d="M188.7,112.7c2.7,0.6,3.1,2.6,3.1,4.9c0,3.4,0,6.9,0,10.3c0,1.2,0.3,1.5,1.5,1.4c2.7-0.1,5.4-0.1,8.1,0
		c1.2,0,1.6-0.3,1.6-1.5c-0.1-3.3-0.1-6.6,0-9.9c0-1.6-0.7-3.8,0.3-4.5c1.1-0.8,3.2-0.3,4.8-0.2c4.8,0.3,8.3,2.5,10.2,7
		c1.1,2.6,1.7,5.4,2.1,8.1c0.1,0.8,0.4,1,1.1,1c3.3,0,6.6,0,10.1,0c-1.5-6.5-5.2-11.4-10.8-14.8c-3.4-2-7.4-2.9-11.2-3.1
		c-6.8-0.4-13.7-0.1-20.5-0.1c-0.4,0-0.9-0.3-1.1,0.4C187.8,112.3,188.2,112.6,188.7,112.7z"/>
	<path class="st0" d="M221.2,153.1c-1.3-0.1-1.9,0.4-2.3,1.6c-1.6,5.2-5,8.2-10.6,8.6c-1.4,0.1-2.8,0-4.2,0.1
		c-1.1,0.1-1.3-0.4-1.3-1.4c0.1-2.6,0-5.1,0-7.7c0-0.9-0.2-1.3-1.2-1.3c-2.9,0.1-5.8,0.1-8.7,0c-1,0-1.3,0.2-1.3,1.2
		c0,2,0,3.9-0.1,5.9c0,1.7-0.8,2.8-2.4,3.4c-0.8,0.3-1.4,0.7-1.4,1.7c6,0,11.9-0.1,17.8,0c4.7,0.1,9.1-1.1,13.5-2.9
		c2.7-1.1,4.8-3.1,6.9-5c1.2-1.1,2-2.7,3.2-4.3C226.3,153.2,223.7,153.3,221.2,153.1z"/>
	<path class="st0" d="M150.7,129.3c1.1,0,1.5-0.2,1.4-1.4c-0.1-3.3,0-6.6,0-9.9c0-3.7,0.3-4.1,3.9-5.3c0.4-0.1,1.1-0.2,1-0.9
		c-0.1-0.9-0.8-0.5-1.3-0.5c-2.9,0-5.9,0-8.8,0c-3,0-6,0-9,0c-0.4,0-1.2-0.4-1.3,0.5c-0.1,0.7,0.6,0.7,1,0.8
		c3.1,1.1,3.5,1.6,3.5,4.9c0,3.4,0,6.8,0,10.3c0,1.1,0.2,1.5,1.4,1.5C145.2,129.2,148,129.2,150.7,129.3z"/>
	<path class="st0" d="M174.3,154.4c-1,3.2-3.3,5.6-6.3,6.7c-6,2.2-12.6,0.7-14.9-6.8c-0.2-0.6-0.3-1.2-1.3-1.2
		c-2.9,0.1-5.9,0.1-8.8,0c-0.9,0-1,0.4-0.8,1.1c1.4,4.6,4,8.1,8.2,10.4c6.5,3.6,16.4,2.4,21.7-2.8c2.4-2.3,3.7-5.3,4.5-8.5
		C175.3,152.9,174.7,153.2,174.3,154.4z"/>
	<path class="st0" d="M180.3,111.3c-2.5,0-5-0.1-7.5,0c-0.5,0-1.3-0.5-1.5,0.5c-0.2,0.9,0.7,0.9,1.3,0.9c2,0.3,2.8,1.5,2.9,3.4
		c0,2.1,0,4.1,0,6.2c0,0,0.1,0,0.1,0c0,1.9,0,3.8,0,5.7c0,0.7,0,1.3,1,1.3c1.1,0,0.8-0.7,0.8-1.3c0-3.6-0.1-7.2,0-10.8
		c0.1-3,0.4-4.2,3.3-4.6c0.4-0.1,1.1-0.1,1-0.8C181.5,110.9,180.7,111.3,180.3,111.3z"/>
	<path class="st0" d="M224.9,136.1c-0.7,0-0.8,0.4-0.7,0.9c0,1.1,0,2.3,0,3.8c-1.1-1.5-1.3-2.9-1.8-4.1c-0.3-0.7-0.7-0.7-1.3-0.7
		c-0.8,0-0.5,0.7-0.6,1.1c0,2.1,0,4.3,0,6.4c0,0.6-0.1,1.1,0.8,1.1c0.9,0,0.7-0.6,0.7-1.1c0-1,0-2.1,0-3.1c0.9,1.2,1.4,2.4,1.9,3.6
		c0.2,0.6,0.7,0.6,1.2,0.6c0.7,0,0.6-0.5,0.6-0.9c0-2.3,0-4.5,0-6.8C225.6,136.5,225.6,136.1,224.9,136.1z"/>
	<path class="st0" d="M187.2,137.1c0-0.5,0-0.9-0.8-0.9c-0.7,0-0.8,0.4-0.8,0.9c0,1.1,0,2.3,0,3.9c-1.1-1.6-1.3-2.9-1.9-4.2
		c-0.3-0.7-0.8-0.7-1.4-0.6c-0.5,0-0.5,0.5-0.5,0.8c0,2.3,0,4.7,0,7c0,0.5,0.1,0.8,0.7,0.8c0.7,0,0.9-0.2,0.8-0.8c0-1.1,0-2.3,0-3.4
		c0.8,1.1,1.3,2.3,1.8,3.5c0.3,0.7,0.7,0.7,1.3,0.7c0.8,0,0.6-0.6,0.6-1.1C187.2,141.5,187.2,139.3,187.2,137.1z"/>
	<path class="st0" d="M167.6,144.7c0.7,0,0.8-0.3,0.8-0.9c0-0.8,0-1.6,0-2.8c1.5,1.4,0.9,4.1,3.7,3.6c-0.2-0.4-0.3-0.7-0.5-1.1
		c-0.7-1.2-1.3-2.3-0.1-3.7c0.7-0.8,0.6-2.3-0.5-3.2c-1.1-0.9-2.6-0.6-3.9-0.5c-0.3,0-0.3,0.4-0.3,0.6c0,2.4,0,4.8,0,7.1
		C166.8,144.5,167,144.7,167.6,144.7z M169.3,137.7c0.8,0,0.8,0.6,0.9,1.1c0,0.8-0.5,0.8-1.1,0.9c-0.9,0-0.7-0.6-0.7-1.1
		C168.3,137.8,168.6,137.6,169.3,137.7z"/>
	<path class="st0" d="M208.2,143.2c-0.7,0.2-1.2,0.1-1.5-0.6c-0.3-0.5-0.9-0.5-1.3-0.3c-0.5,0.3-0.2,0.9,0.1,1.3
		c0.7,1.2,1.9,1.3,3.1,1.1c1.2-0.2,1.7-1,1.8-2.2c0.1-1.7-0.9-2.5-2.4-2.9c-0.6-0.1-1.1-0.4-1-1.1c0-0.4,0.1-0.7,0.6-0.8
		c0.6-0.1,1.1,0,1.2,0.7c0.1,0.7,0.8,0.5,1.2,0.4c0.7-0.2,0.4-0.8,0.3-1.2c-0.3-1.2-1.3-1.5-2.5-1.6c-1.1,0.2-2.1,0.5-2.3,1.9
		c-0.3,1.6,0.4,2.7,2,3.2c0.7,0.2,1.3,0.4,1.4,1.2C208.6,142.7,208.6,143,208.2,143.2z"/>
	<path class="st0" d="M176.9,136c-1.1,0-2.1,0.5-2.3,1.7c-0.4,1.7-0.4,3.5-0.1,5.3c0.3,1.3,1.2,1.9,2.6,1.8c1.3-0.1,2-0.8,2.3-2
		c0.1-0.7,0.1-1.5,0.1-2.3c0-0.8,0-1.7-0.2-2.6C179,136.6,178.1,136,176.9,136z M176.8,143.2c-1.6-0.1-0.7-1.7-0.9-2.7
		c-0.1-0.3-0.1-0.7,0-1.1c0.2-0.7-0.2-1.8,1-1.8c1.1,0.1,0.9,1.1,1,1.8c0,0.4,0,0.7,0,1.2C177.6,141.5,178.6,143.2,176.8,143.2z"/>
	<path class="st0" d="M153.7,137.7c0.8-0.3,1,0.4,1.2,1c0.2,0.6,0.8,0.6,1.2,0.4c0.6-0.2,0.3-0.7,0.3-1.1c-0.2-1.3-1-1.9-2.3-2
		c-1.3-0.1-2.3,0.6-2.6,1.9c-0.2,0.8-0.1,1.7-0.2,2.7c0.1,0.7,0,1.7,0.3,2.5c0.3,1.1,1.1,1.7,2.3,1.6c1.1,0,1.9-0.4,2.3-1.5
		c0.1-0.4,0.5-0.8,0-1.1c-0.4-0.2-1-0.3-1.3,0.2c-0.3,0.6-0.7,1.1-1.4,0.7c-0.7-0.3-0.6-1-0.6-1.6c0-0.8-0.1-1.6,0-2.4
		C153,138.6,152.9,137.9,153.7,137.7z"/>
	<path class="st0" d="M199.7,137.8c1.2-0.7,1,0.8,1.5,1.2c0.2,0.2,0.7,0.2,1,0.1c0.5-0.1,0.3-0.6,0.3-0.9c-0.2-1.4-1-2.1-2.3-2.2
		c-1.3-0.1-2.3,0.6-2.5,1.9c-0.3,1.6-0.3,3.3,0,4.9c0.1,1,0.8,1.8,1.9,1.9c1,0.1,2,0,2.6-1c0.3-0.5,0.9-1.1,0.2-1.6
		c-0.4-0.3-1.2-0.3-1.5,0.5c-0.2,0.5-0.6,0.5-1.1,0.5c-0.5-0.1-0.6-0.5-0.7-1c-0.1-0.5,0-1.1,0-1.6c0,0,0,0,0,0c0-0.1,0-0.2,0-0.4
		C199.1,139.4,198.8,138.2,199.7,137.8z"/>
	<path class="st0" d="M147.2,137.7c0.6,0,0.9-0.1,1-0.8c0-0.7-0.3-0.8-0.9-0.8c-3-0.3-3-0.3-3,2.7c0,0.5,0,1,0,1.5
		c0,0.6,0,1.2,0,1.8c0,2.7,0,2.7,2.8,2.6c0.5,0,1.1,0.3,1.2-0.7c0.1-1-0.6-0.9-1.2-0.8c-0.6,0-1.2,0.1-1.2-0.9c0-0.7,0-1.4,1-1.2
		c0.6,0.1,1.1,0,1.1-0.8c0-0.9-0.7-0.7-1.2-0.7c-1,0.1-0.9-0.5-0.9-1.1C145.7,137.3,146.6,137.7,147.2,137.7z"/>
	<path class="st0" d="M231.7,143.2c-0.6,0-1.4,0.2-1.4-0.9c0-1,0.3-1.3,1.3-1.2c0.6,0.1,0.9-0.2,0.9-0.8c0-0.8-0.6-0.7-1-0.7
		c-1.4,0.2-1.1-0.8-1-1.5c0.2-0.8,0.9-0.4,1.4-0.4c0.6,0,0.9-0.1,0.9-0.8c0-0.7-0.3-0.7-0.9-0.8c-3-0.3-3-0.3-3,2.7
		c0,0.6,0,1.1,0,1.7c0,0.5,0,1,0,1.5c0,3,0,3,3,2.8c0.5,0,1,0.1,1-0.7C232.8,143.2,232.3,143.2,231.7,143.2z"/>
	<path class="st0" d="M131.6,143.2c-0.7,0-1.3,0.1-1.3-1c0-0.8,0.2-1.3,1.1-1.1c0.6,0.1,1.1,0,1.1-0.8c0-0.9-0.7-0.7-1.2-0.7
		c-1.1,0.1-1-0.6-1-1.3c0-1,0.7-0.6,1.2-0.7c0.6-0.1,1.3,0.2,1.3-0.8c0-1-0.8-0.7-1.4-0.7c-2.6-0.1-2.6-0.1-2.6,2.5
		c0,0.6,0,1.2,0,1.8c0,0.5,0,1.1,0,1.6c0,2.7,0,2.7,2.7,2.6c0.6,0,1.3,0.2,1.3-0.8C132.7,143,132.1,143.2,131.6,143.2z"/>
	<path class="st0" d="M159.8,137.7c1-0.1,1.1,0.5,1,1.2c0,0.7,0,1.5,0,2.2c0,0.9,0,1.7,0,2.6c0,0.5-0.1,1.1,0.8,1.1
		c0.9,0,0.8-0.5,0.8-1.1c0-1.6,0-3.2,0-4.7c0-0.7-0.1-1.4,1-1.3c0.6,0.1,0.9-0.2,0.8-0.9c0-0.8-0.5-0.7-1-0.7c-1.1,0-2.2,0-3.3,0
		c-0.5,0-0.9,0-0.9,0.6C159,137.3,159,137.8,159.8,137.7z"/>
	<path class="st0" d="M190.7,144.7c1,0,2.1,0,3.1,0c0.4,0,0.7-0.1,0.7-0.6c0-0.3,0.1-0.9-0.4-0.9c-1.5,0.1-1-1-1.1-1.7
		c-0.1-0.7,0-1.5,0-2.2c0-0.7-0.4-1.8,1.1-1.7c0.5,0,0.4-0.5,0.4-0.9c0-0.5-0.3-0.6-0.7-0.6c-0.5,0-1,0-1.5,0c-0.2,0-0.5-0.1-0.7,0
		c-0.5,0.1-1.3-0.4-1.5,0.5c-0.2,0.8,0.3,1,1,1.1c0.6,0,0.4,0.6,0.4,1c0,1,0,2,0,2.9c0,0.7,0.3,1.7-1.1,1.6c-0.5,0-0.4,0.5-0.4,0.8
		C190,144.6,190.3,144.7,190.7,144.7z"/>
	<path class="st0" d="M240.2,136.1c-1.2,0-2.3,0-3.5,0c-0.5,0-0.8,0.1-0.8,0.7c0,0.5,0.1,0.9,0.7,0.8c1.3-0.2,1.2,0.7,1.2,1.5
		c0,0.7,0,1.3,0,2c0,0.9,0,1.7,0,2.6c0,0.6,0,1.1,0.8,1c0.8,0,0.7-0.5,0.7-1c0-1.6,0-3.2,0-4.8c0-0.8-0.1-1.5,1.1-1.3
		c0.7,0.1,0.8-0.4,0.8-0.9C241.1,136.1,240.6,136.1,240.2,136.1z"/>
	<path class="st0" d="M139.4,143.2c-1.2,0.2-1.4-0.4-1.4-1.4c0.1-1.6,0-3.2,0-4.7c0-0.5,0-0.9-0.8-0.9c-0.7,0-0.8,0.3-0.8,0.9
		c0,1.2,0,2.3,0,3.5c0,0.5,0,1,0,1.5c0,2.8,0,2.9,2.9,2.8c0.5,0,1.3,0.3,1.3-0.8C140.7,142.9,139.9,143.2,139.4,143.2z"/>
	<path class="st0" d="M215.4,142.8c-0.6,0-1,0.1-1,0.9c0,0.7,0.1,1.1,1,1.1c0.7,0,1-0.2,0.9-1C216.4,143.1,216.2,142.8,215.4,142.8z
		"/>
</g>
<g>
	<path class="st1" d="M184.9,196.5c-32.5,0-59-25.8-59-57.5s26.5-57.5,59-57.5s59,25.8,59,57.5S217.5,196.5,184.9,196.5z
		 M184.9,83.5c-31.4,0-57,24.9-57,55.5s25.6,55.5,57,55.5s57-24.9,57-55.5S216.4,83.5,184.9,83.5z"/>
</g>
</svg>
